<svg width="110" height="23" viewBox="0 0 110 23" fill="none" xmlns="http://www.w3.org/2000/svg">
<path d="M4.04929 22.5129V9.8956H0V6.57456H4.04929V3.61766C4.02479 3.13506 4.09934 2.65256 4.26834 2.19987C4.43735 1.74717 4.69724 1.33386 5.032 0.985396C5.36834 0.656489 5.76827 0.399687 6.2073 0.230713C6.64633 0.0617378 7.11523 -0.0158545 7.5853 0.00268616H11.7618V3.35882H8.99794C8.4013 3.35882 8.09859 3.67908 8.09859 4.32398V6.57456H12.2751V9.8956H8.09859V22.5129H4.04929Z" fill="black"/>
<path d="M15.4248 22.5129V6.57456H19.4127V8.37327H19.9874C20.189 7.77093 20.6083 7.26558 21.1631 6.95624C21.7531 6.64991 22.4114 6.49893 23.0759 6.51753H25.0018V10.115H23.0101C22.0931 10.0804 21.1935 10.3709 20.47 10.9353C19.8075 11.4837 19.4741 12.3217 19.4741 13.4579V22.5129H15.4248Z" fill="black"/>
<path d="M33.8728 22.9604C32.3923 22.9845 30.9274 22.6551 29.5997 21.9996C28.3539 21.3738 27.3151 20.402 26.6077 19.2006C25.8512 17.8649 25.4735 16.3481 25.5153 14.8135V14.2827C25.474 12.7482 25.8517 11.2315 26.6077 9.8956C27.314 8.69446 28.3532 7.72377 29.5997 7.10101C30.9313 6.46621 32.3874 6.13568 33.8625 6.1334C35.3376 6.13113 36.7948 6.45716 38.1282 7.08785C39.3809 7.7127 40.425 8.68818 41.1334 9.8956C41.8895 11.2315 42.2671 12.7482 42.2258 14.2827V14.796C42.2676 16.3305 41.8899 17.8473 41.1334 19.1831C40.4246 20.3923 39.3808 21.3705 38.1282 21.9996C36.8058 22.6521 35.3473 22.9814 33.8728 22.9604ZM33.8728 19.363C34.4395 19.3787 35.0035 19.2799 35.5312 19.0726C36.0588 18.8653 36.5393 18.5537 36.9437 18.1565C37.7568 17.3551 38.1633 16.2042 38.1633 14.7039V14.3792C38.1633 12.8832 37.7641 11.747 36.9613 10.9266C36.1182 10.1506 35.0142 9.71983 33.8684 9.71983C32.7225 9.71983 31.6185 10.1506 30.7755 10.9266C29.9595 11.7294 29.5515 12.8832 29.5515 14.3792V14.7214C29.5515 16.2218 29.9595 17.3727 30.7755 18.1741C31.184 18.572 31.6694 18.8827 32.2018 19.0871C32.7343 19.2915 33.3028 19.3853 33.8728 19.363Z" fill="black"/>
<path d="M44.0244 22.5129V6.57456H48.0123V8.3294H48.5914C48.9124 7.73745 49.3906 7.24558 49.9733 6.90798C50.7477 6.48022 51.6253 6.27523 52.5091 6.31572C53.4642 6.27023 54.4125 6.49854 55.2422 6.97379C55.9115 7.39596 56.4554 7.98981 56.8172 8.69353H57.3963C57.7607 8.00734 58.2898 7.42242 58.9362 6.99133C59.7915 6.49046 60.7765 6.25529 61.7658 6.31572C62.6985 6.30335 63.6201 6.51869 64.4507 6.94308C65.2673 7.37022 65.939 8.02972 66.3811 8.8383C66.8889 9.82527 67.1309 10.9276 67.083 12.0365V22.5129H63.0337V12.326C63.0651 11.9668 63.0229 11.6049 62.9098 11.2624C62.7966 10.92 62.6149 10.6042 62.3757 10.3343C62.1189 10.1048 61.8192 9.92853 61.4939 9.81558C61.1686 9.70263 60.8241 9.65527 60.4804 9.67624C60.0812 9.65207 59.6817 9.71843 59.3117 9.87037C58.9418 10.0223 58.6109 10.2559 58.3439 10.5537C57.796 11.276 57.5266 12.1715 57.5849 13.0762V22.5129H53.54V12.326C53.5691 11.9655 53.5241 11.6029 53.4079 11.2604C53.2917 10.9179 53.1068 10.6027 52.8644 10.3343C52.6077 10.1048 52.308 9.92853 51.9827 9.81558C51.6574 9.70263 51.3129 9.65527 50.9692 9.67624C50.57 9.65207 50.1705 9.71843 49.8005 9.87037C49.4305 10.0223 49.0997 10.2559 48.8327 10.5537C48.2848 11.276 48.0154 12.1715 48.0737 13.0762V22.5129H44.0244Z" fill="black"/>
<path d="M69.54 22.5129V6.57456H73.5279V8.3294H74.1026C74.4294 7.74739 74.9067 7.264 75.4846 6.92992C76.2609 6.50309 77.1397 6.29818 78.0247 6.33766C78.9798 6.29217 79.9281 6.52048 80.7579 6.99573C81.4271 7.4179 81.971 8.01176 82.3328 8.71547H82.9119C83.2763 8.02928 83.8054 7.44436 84.4518 7.01327C85.2997 6.50814 86.2782 6.26542 87.2639 6.31573C88.1951 6.30407 89.1151 6.51939 89.9444 6.94308C90.7601 7.37151 91.4314 8.03068 91.8748 8.83831C92.3902 9.82322 92.6398 10.9256 92.5986 12.0365V22.5129H88.5801V12.3261C88.6073 11.9646 88.5603 11.6014 88.4418 11.2589C88.3234 10.9163 88.136 10.6017 87.8913 10.3343C87.6345 10.1048 87.3348 9.92854 87.0095 9.81558C86.6842 9.70263 86.3398 9.65527 85.9961 9.67624C85.5968 9.65207 85.1973 9.71844 84.8273 9.87037C84.4574 10.0223 84.1265 10.2559 83.8595 10.5537C83.3117 11.276 83.0423 12.1715 83.1006 13.0762V22.5129H79.0557V12.3261C79.0847 11.9655 79.0397 11.6029 78.9236 11.2604C78.8074 10.9179 78.6224 10.6028 78.38 10.3343C78.1233 10.1048 77.8236 9.92854 77.4983 9.81558C77.173 9.70263 76.8285 9.65527 76.4848 9.67624C76.085 9.65268 75.685 9.71931 75.3145 9.87118C74.9439 10.0231 74.6122 10.2563 74.3439 10.5537C73.7997 11.2777 73.5321 12.1723 73.5893 13.0762V22.5129H69.54Z" fill="#712FFF"/>
<path d="M102.32 22.9604C100.858 22.991 99.4132 22.6418 98.1264 21.947C96.9308 21.2913 95.9487 20.3061 95.2967 19.1085C94.5896 17.7567 94.2407 16.2463 94.2833 14.7214V14.3353C94.2462 12.8242 94.5886 11.328 95.2791 9.98334C95.9166 8.77982 96.8887 7.78643 98.0781 7.12295C99.3583 6.42722 100.798 6.07789 102.255 6.10953C103.685 6.07462 105.097 6.43599 106.335 7.15366C107.488 7.84439 108.423 8.84646 109.033 10.0448C109.699 11.3749 110.031 12.8478 109.998 14.3353V15.7304H98.3984C98.4043 16.2355 98.5158 16.7338 98.7259 17.1932C98.9359 17.6526 99.2398 18.0629 99.618 18.3978C100.397 19.0863 101.408 19.4546 102.448 19.4288C103.584 19.4288 104.417 19.1787 104.953 18.6873C105.465 18.2264 105.881 17.6688 106.177 17.0466L109.485 18.8014C109.115 19.4539 108.673 20.063 108.168 20.6177C107.534 21.3219 106.764 21.8905 105.905 22.2892C104.776 22.7794 103.55 23.0088 102.32 22.9604ZM98.4291 12.7077H105.887C105.856 12.2869 105.742 11.8764 105.552 11.4999C105.361 11.1234 105.098 10.7884 104.777 10.5142C104.056 9.93471 103.148 9.63833 102.224 9.68063C101.282 9.62981 100.355 9.92642 99.618 10.5142C98.9733 11.0806 98.5517 11.8584 98.4291 12.7077Z" fill="#712FFF"/>
</svg>
