<svg width="144" height="30" viewBox="0 0 144 30" fill="none" xmlns="http://www.w3.org/2000/svg">
<path d="M5.28934 29.4072V12.926H0V8.58794H5.28934V4.72552C5.25733 4.09514 5.35471 3.46488 5.57547 2.87355C5.79624 2.28222 6.13571 1.74234 6.57299 1.28716C7.01233 0.857531 7.53473 0.522087 8.10821 0.301366C8.68169 0.0806442 9.29419 -0.0207098 9.9082 0.00350876H15.3637V4.38741H11.7535C10.9741 4.38741 10.5787 4.80575 10.5787 5.64814V8.58794H16.0342V12.926H10.5787V29.4072H5.28934Z" fill="white"/>
<path d="M20.1489 29.4072V8.58798H25.358V10.9375H26.1087C26.3722 10.1507 26.9199 9.49061 27.6445 9.08654C28.4152 8.6864 29.2751 8.48918 30.1431 8.51348H32.6588V13.2126H30.0571C28.8594 13.1674 27.6842 13.5469 26.7391 14.2842C25.8738 15.0005 25.4383 16.0951 25.4383 17.5793V29.4072H20.1489Z" fill="white"/>
<path d="M44.2461 29.9918C42.3122 30.0233 40.3987 29.593 38.6645 28.7368C37.0372 27.9193 35.6802 26.6499 34.7562 25.0806C33.768 23.3358 33.2747 21.3545 33.3293 19.3501V18.6566C33.2753 16.6523 33.7686 14.6711 34.7562 12.9261C35.6787 11.3571 37.0363 10.0891 38.6645 9.27566C40.4038 8.44645 42.3058 8.01471 44.2327 8.01173C46.1595 8.00876 48.0629 8.43463 49.8047 9.25847C51.4411 10.0747 52.8049 11.3489 53.7302 12.9261C54.7178 14.6711 55.2111 16.6523 55.1571 18.6566V19.3271C55.2117 21.3316 54.7184 23.3129 53.7302 25.0577C52.8043 26.6373 51.4409 27.915 49.8047 28.7368C48.0773 29.5891 46.1722 30.0192 44.2461 29.9918ZM44.2461 25.2927C44.9863 25.3132 45.7231 25.1842 46.4123 24.9134C47.1016 24.6427 47.7292 24.2357 48.2575 23.7168C49.3196 22.67 49.8506 21.1666 49.8506 19.2068V18.7827C49.8506 16.8286 49.3291 15.3444 48.2804 14.2727C47.1791 13.2591 45.7371 12.6965 44.2403 12.6965C42.7436 12.6965 41.3015 13.2591 40.2003 14.2727C39.1344 15.3214 38.6014 16.8286 38.6014 18.7827V19.2297C38.6014 21.1896 39.1344 22.6929 40.2003 23.7397C40.734 24.2595 41.3679 24.6653 42.0634 24.9323C42.759 25.1993 43.5016 25.3219 44.2461 25.2927Z" fill="white"/>
<path d="M57.5063 29.4072V8.58792H62.7155V10.8802H63.4719C63.8913 10.1069 64.5159 9.46444 65.277 9.02345C66.2885 8.4647 67.435 8.19693 68.5893 8.24982C69.837 8.19039 71.0756 8.48862 72.1595 9.10941C73.0337 9.66086 73.7441 10.4366 74.2168 11.3558H74.9732C75.4492 10.4595 76.1403 9.69543 76.9846 9.13233C78.1019 8.47807 79.3885 8.17088 80.6809 8.24982C81.8992 8.23365 83.103 8.51494 84.188 9.06929C85.2546 9.62724 86.132 10.4887 86.7095 11.5449C87.3729 12.8341 87.6889 14.274 87.6264 15.7225V29.4072H82.337V16.1007C82.378 15.6314 82.3229 15.1587 82.1751 14.7114C82.0274 14.2641 81.79 13.8516 81.4774 13.499C81.142 13.1993 80.7506 12.969 80.3257 12.8215C79.9007 12.6739 79.4508 12.6121 79.0018 12.6395C78.4803 12.6079 77.9585 12.6946 77.4752 12.893C76.9919 13.0915 76.5598 13.3966 76.211 13.7856C75.4954 14.7291 75.1435 15.8989 75.2196 17.0807V29.4072H69.936V16.1007C69.9739 15.6298 69.9152 15.1561 69.7634 14.7087C69.6117 14.2614 69.3701 13.8497 69.0535 13.499C68.7181 13.1993 68.3266 12.969 67.9017 12.8215C67.4768 12.6739 67.0269 12.6121 66.5779 12.6395C66.0564 12.6079 65.5345 12.6946 65.0513 12.893C64.568 13.0915 64.1358 13.3966 63.7871 13.7856C63.0714 14.7291 62.7195 15.8989 62.7957 17.0807V29.4072H57.5063Z" fill="white"/>
<path d="M90.8359 29.4072V8.58793H96.045V10.8802H96.7958C97.2226 10.1199 97.8461 9.48849 98.6009 9.0521C99.6149 8.49456 100.763 8.22691 101.919 8.27847C103.167 8.21905 104.405 8.51728 105.489 9.13806C106.363 9.68952 107.074 10.4652 107.546 11.3845H108.303C108.779 10.4881 109.47 9.72409 110.314 9.16099C111.422 8.50116 112.7 8.1841 113.988 8.24982C115.204 8.23459 116.406 8.51585 117.489 9.0693C118.554 9.62892 119.431 10.49 120.01 11.5449C120.684 12.8314 121.01 14.2714 120.956 15.7225V29.4072H115.707V16.1007C115.742 15.6286 115.681 15.1542 115.526 14.7068C115.371 14.2593 115.127 13.8483 114.807 13.499C114.472 13.1993 114.08 12.969 113.655 12.8215C113.23 12.6739 112.78 12.6121 112.331 12.6395C111.81 12.6079 111.288 12.6946 110.805 12.893C110.322 13.0915 109.889 13.3966 109.541 13.7856C108.825 14.7292 108.473 15.8989 108.549 17.0807V29.4072H103.266V16.1007C103.304 15.6298 103.245 15.1561 103.093 14.7087C102.941 14.2614 102.7 13.8497 102.383 13.499C102.048 13.1993 101.656 12.969 101.231 12.8215C100.806 12.6739 100.356 12.6121 99.9075 12.6395C99.3852 12.6087 98.8628 12.6957 98.3787 12.8941C97.8946 13.0925 97.4614 13.3972 97.1109 13.7856C96.4001 14.7313 96.0506 15.8999 96.1253 17.0807V29.4072H90.8359Z" fill="black"/>
<path d="M133.655 29.9918C131.745 30.0318 129.857 29.5757 128.176 28.668C126.615 27.8115 125.332 26.5246 124.48 24.9603C123.557 23.1946 123.101 21.2216 123.156 19.2297V18.7254C123.108 16.7516 123.555 14.7971 124.457 13.0407C125.29 11.4686 126.56 10.171 128.113 9.30432C129.786 8.39554 131.666 7.93923 133.569 7.98056C135.437 7.93496 137.282 8.40699 138.898 9.34444C140.405 10.2467 141.626 11.5556 142.423 13.1209C143.294 14.8584 143.726 16.7824 143.683 18.7254V20.5478H128.532C128.539 21.2075 128.685 21.8584 128.96 22.4585C129.234 23.0585 129.631 23.5945 130.125 24.032C131.143 24.9313 132.463 25.4123 133.821 25.3786C135.305 25.3786 136.394 25.052 137.093 24.4102C137.762 23.8081 138.305 23.0797 138.692 22.2669L143.013 24.5592C142.53 25.4114 141.953 26.2072 141.294 26.9316C140.466 27.8516 139.46 28.5943 138.337 29.115C136.862 29.7554 135.262 30.055 133.655 29.9918ZM128.572 16.5994H138.314C138.273 16.0497 138.124 15.5134 137.876 15.0216C137.627 14.5298 137.283 14.0922 136.864 13.7341C135.922 12.9772 134.736 12.59 133.529 12.6453C132.299 12.5789 131.088 12.9663 130.125 13.7341C129.283 14.474 128.732 15.4899 128.572 16.5994Z" fill="black"/>
</svg>
